# File created by Blade
# Date/Time:  Tue Apr 07 20:17:56 2015
# Frame Rate: 120.000 fps
#------------------------------------------------------
:FULLY-SPECIFIED
:DEGREES
658
root 5.649389 34.168393 -9.900133 15.084685 -16.505750 -50.046838
Spine 5.762830 21.015061 39.465430
Head 8.217392 -4.096550 10.928255
LeftShoulder -20.771072 40.479358 14.720264
LeftArm 53.728074 -47.109575 -82.253150
LeftForeArm 0.016483 -0.000000 12.574144
LeftHand 11.029539 -0.000000 5.692032
LeftHandThumb1 -26.253704 0.000000 33.147579
RightShoulder -7.830371 32.291932 -23.964958
RightArm 54.740695 73.093383 93.421066
RightForeArm 54.512894 -0.000000 60.192744
RightHand 4.633230 -0.000000 18.851914
RightHandThumb1 -24.326973 -0.000000 -32.862282
LeftUpLeg -8.513800 11.085180 45.154741
LeftLeg 26.228145 -0.000000 -0.000000
LeftFoot -22.004337 28.092650 -22.620246
LeftToeBase -9.517763 -0.000000 0.000000
RightUpLeg -142.038302 -46.892999 38.767164
RightLeg -4.346518 -0.000000 0.000000
RightFoot 34.276741 -5.626182 -1.002399
RightToeBase 53.160439 -0.000000 -0.000000
659
root 5.632686 34.173259 -9.862563 14.936203 -16.514867 -50.074625
Spine 5.710653 20.938257 39.420973
Head 8.513097 -4.031634 11.264505
LeftShoulder -20.700879 40.448613 14.850337
LeftArm 53.866366 -47.211753 -82.338305
LeftForeArm 0.206105 0.000000 13.059097
LeftHand 11.124687 -0.000000 5.698101
LeftHandThumb1 -26.253704 0.000000 33.147579
RightShoulder -7.918509 32.323736 -24.011026
RightArm 54.918776 73.045972 93.631786
RightForeArm 54.396112 -0.000000 60.248447
RightHand 4.600107 -0.000000 18.933470
RightHandThumb1 -24.326973 -0.000000 -32.862282
LeftUpLeg -8.316020 10.973148 45.193991
LeftLeg 26.188684 -0.000000 -0.000000
LeftFoot -21.838510 28.322460 -22.303244
LeftToeBase -9.690365 -0.000000 0.000000
RightUpLeg -142.049592 -47.041402 38.766207
RightLeg -4.529087 -0.000000 0.000000
RightFoot 34.250859 -5.740479 -0.874818
RightToeBase 53.061670 -0.000000 -0.000000
660
root 5.620281 34.179460 -9.817087 14.706630 -16.427101 -50.123698
Spine 5.705598 20.725367 39.495741
Head 8.756116 -3.995514 11.471298
LeftShoulder -20.621796 40.448272 14.941714
LeftArm 53.964064 -47.315447 -82.412204
LeftForeArm 0.389704 -0.000000 13.515519
LeftHand 11.157092 0.000000 5.843875
LeftHandThumb1 -26.253704 0.000000 33.147579
RightShoulder -8.041933 32.331197 -24.148132
RightArm 55.044829 72.937539 93.791406
RightForeArm 54.414449 -0.000000 60.358826
RightHand 4.557042 -0.000000 19.030895
RightHandThumb1 -24.326973 -0.000000 -32.862282
LeftUpLeg -8.112932 10.628339 45.254004
LeftLeg 26.128191 -0.000000 -0.000000
LeftFoot -21.645900 28.684987 -21.928083
LeftToeBase -9.907446 -0.000000 0.000000
RightUpLeg -142.040475 -47.311593 38.830373
RightLeg -4.812558 -0.000000 0.000000
RightFoot 34.244480 -5.607034 -1.027237
RightToeBase 52.844405 -0.000000 -0.000000
661
root 5.602495 34.185014 -9.782920 14.598034 -16.420927 -50.171650
Spine 5.657923 20.639382 39.484224
Head 8.942669 -3.979890 11.744383
LeftShoulder -20.571116 40.452632 15.071512
LeftArm 54.067902 -47.421669 -82.472658
LeftForeArm 0.536105 -0.000000 13.893034
LeftHand 11.220752 -0.000000 5.897646
LeftHandThumb1 -26.253704 0.000000 33.147579
RightShoulder -8.146963 32.414513 -24.257717
RightArm 54.864412 72.835367 93.671935
RightForeArm 54.454895 -0.000000 60.564690
RightHand 4.529274 -0.000000 18.995722
RightHandThumb1 -24.326973 -0.000000 -32.862282
LeftUpLeg -7.951645 10.377064 45.291779
LeftLeg 26.054475 -0.000000 -0.000000
LeftFoot -21.381100 29.134173 -21.468243
LeftToeBase -10.248121 -0.000000 0.000000
RightUpLeg -142.100528 -47.394848 38.916574
RightLeg -5.152991 -0.000000 0.000000
RightFoot 34.153431 -5.509341 -1.176511
RightToeBase 53.117481 -0.000000 -0.000000
662
root 5.583176 34.189423 -9.753266 14.552887 -16.420023 -50.212079
Spine 5.558208 20.590968 39.431812
Head 9.110521 -4.009122 12.043058
LeftShoulder -20.509416 40.439349 15.230111
LeftArm 54.129126 -47.571750 -82.501967
LeftForeArm 0.708210 0.000000 14.227874
LeftHand 11.226094 -0.000000 5.841366
LeftHandThumb1 -26.253704 0.000000 33.147579
RightShoulder -8.219061 32.480340 -24.316561
RightArm 54.768393 72.739592 93.601857
RightForeArm 54.482441 -0.000000 60.825766
RightHand 4.486878 -0.000000 19.037820
RightHandThumb1 -24.326973 -0.000000 -32.862282
LeftUpLeg -7.847545 10.220413 45.310580
LeftLeg 25.972889 -0.000000 -0.000000
LeftFoot -20.977540 29.647017 -20.848704
LeftToeBase -10.695290 -0.000000 0.000000
RightUpLeg -142.231543 -47.439853 39.022059
RightLeg -5.474109 -0.000000 0.000000
RightFoot 34.055943 -5.620707 -1.082434
RightToeBase 52.901645 -0.000000 -0.000000
663
root 5.565280 34.195955 -9.723939 14.540960 -16.391513 -50.295164
Spine 5.435441 20.539616 39.446957
Head 9.278588 -4.063695 12.285013
LeftShoulder -20.462348 40.425053 15.339073
LeftArm 54.135282 -47.686776 -82.378847
LeftForeArm 0.774143 -0.000000 14.439748
LeftHand 11.292671 -0.000000 5.890834
LeftHandThumb1 -26.253704 0.000000 33.147579
RightShoulder -8.283447 32.499754 -24.400045
RightArm 54.611053 72.635896 93.429221
RightForeArm 54.541431 -0.000000 61.067579
RightHand 4.429886 -0.000000 19.009385
RightHandThumb1 -24.326973 -0.000000 -32.862282
LeftUpLeg -7.752276 10.056284 45.354761
LeftLeg 25.823202 -0.000000 -0.000000
LeftFoot -20.487581 30.313621 -20.075083
LeftToeBase -11.085325 -0.000000 0.000000
RightUpLeg -142.401726 -47.481248 39.207312
RightLeg -5.818203 -0.000000 0.000000
RightFoot 33.890405 -5.732572 -0.977751
RightToeBase 53.120242 -0.000000 -0.000000
